@startuml

class Corpus

class Document {
    url:String
    created:TimeStamp
    imported:TimeStamp
}
class DocumentContent {
    content:String
}
Document -> DocumentContent
Document -d-> AnnotationSet
Document -> FeatureMap : features

Corpus *-r- "*" Document

class Annotation {
    id: Long
    type:String
    startNode: Long
    endNode: Long

}

AnnotationSet *-r- Annotation

class FeatureMap {
}

class Analyzer {
    execute(document:Document, corpus:Corpus)
}
Analyzer ..> Corpus : uses
Analyzer ..> Document : uses


class Relation {
    id:Long
    type: String
}
Relation -u-> FeatureMap : features
Relation -l-> "*" Annotation : members
Annotation -> FeatureMap : features

@enduml
